<mxfile host="app.diagrams.net" agent="Mozilla/5.0 (Windows NT 10.0; Win64; x64) AppleWebKit/537.36 (KHTML, like Gecko) Chrome/131.0.0.0 Safari/537.36 Edg/131.0.0.0" version="25.0.3">
  <diagram name="Page-1" id="EK5c_YadUZM_F0jGNJ73">
    <mxGraphModel dx="560" dy="641" grid="1" gridSize="10" guides="1" tooltips="1" connect="1" arrows="1" fold="1" page="1" pageScale="1" pageWidth="850" pageHeight="1100" math="0" shadow="0">
      <root>
        <mxCell id="0" />
        <mxCell id="1" parent="0" />
        <mxCell id="7Z89wIVW_9bbDD6U6qab-5" style="edgeStyle=orthogonalEdgeStyle;rounded=0;orthogonalLoop=1;jettySize=auto;html=1;" edge="1" parent="1" source="7Z89wIVW_9bbDD6U6qab-1" target="7Z89wIVW_9bbDD6U6qab-2">
          <mxGeometry relative="1" as="geometry" />
        </mxCell>
        <mxCell id="7Z89wIVW_9bbDD6U6qab-1" value="start" style="ellipse;whiteSpace=wrap;html=1;" vertex="1" parent="1">
          <mxGeometry x="220" y="40" width="120" height="80" as="geometry" />
        </mxCell>
        <mxCell id="7Z89wIVW_9bbDD6U6qab-13" style="edgeStyle=orthogonalEdgeStyle;rounded=0;orthogonalLoop=1;jettySize=auto;html=1;entryX=0.5;entryY=0;entryDx=0;entryDy=0;" edge="1" parent="1" source="7Z89wIVW_9bbDD6U6qab-2" target="7Z89wIVW_9bbDD6U6qab-12">
          <mxGeometry relative="1" as="geometry" />
        </mxCell>
        <mxCell id="7Z89wIVW_9bbDD6U6qab-2" value="num = a&lt;div&gt;num = b&lt;/div&gt;&lt;div&gt;num = c&lt;/div&gt;" style="rounded=0;whiteSpace=wrap;html=1;" vertex="1" parent="1">
          <mxGeometry x="220" y="190" width="120" height="60" as="geometry" />
        </mxCell>
        <mxCell id="7Z89wIVW_9bbDD6U6qab-9" value="true" style="edgeStyle=orthogonalEdgeStyle;rounded=0;orthogonalLoop=1;jettySize=auto;html=1;entryX=0.5;entryY=0;entryDx=0;entryDy=0;" edge="1" parent="1" source="7Z89wIVW_9bbDD6U6qab-4" target="7Z89wIVW_9bbDD6U6qab-8">
          <mxGeometry relative="1" as="geometry" />
        </mxCell>
        <mxCell id="7Z89wIVW_9bbDD6U6qab-16" value="false" style="edgeStyle=orthogonalEdgeStyle;rounded=0;orthogonalLoop=1;jettySize=auto;html=1;" edge="1" parent="1" source="7Z89wIVW_9bbDD6U6qab-4">
          <mxGeometry relative="1" as="geometry">
            <mxPoint x="400" y="560" as="targetPoint" />
          </mxGeometry>
        </mxCell>
        <mxCell id="7Z89wIVW_9bbDD6U6qab-4" value="Delta &amp;lt; 0" style="rhombus;whiteSpace=wrap;html=1;" vertex="1" parent="1">
          <mxGeometry x="240" y="440" width="80" height="80" as="geometry" />
        </mxCell>
        <mxCell id="7Z89wIVW_9bbDD6U6qab-34" style="edgeStyle=orthogonalEdgeStyle;rounded=0;orthogonalLoop=1;jettySize=auto;html=1;entryX=0;entryY=0.5;entryDx=0;entryDy=0;" edge="1" parent="1" source="7Z89wIVW_9bbDD6U6qab-8" target="7Z89wIVW_9bbDD6U6qab-30">
          <mxGeometry relative="1" as="geometry">
            <mxPoint x="150" y="1160" as="targetPoint" />
            <Array as="points">
              <mxPoint x="140" y="1170" />
            </Array>
          </mxGeometry>
        </mxCell>
        <mxCell id="7Z89wIVW_9bbDD6U6qab-8" value="phương trình vô nghiệm" style="shape=parallelogram;perimeter=parallelogramPerimeter;whiteSpace=wrap;html=1;fixedSize=1;" vertex="1" parent="1">
          <mxGeometry x="90" y="570" width="120" height="60" as="geometry" />
        </mxCell>
        <mxCell id="7Z89wIVW_9bbDD6U6qab-15" style="edgeStyle=orthogonalEdgeStyle;rounded=0;orthogonalLoop=1;jettySize=auto;html=1;entryX=0.5;entryY=0;entryDx=0;entryDy=0;" edge="1" parent="1" source="7Z89wIVW_9bbDD6U6qab-12" target="7Z89wIVW_9bbDD6U6qab-4">
          <mxGeometry relative="1" as="geometry" />
        </mxCell>
        <mxCell id="7Z89wIVW_9bbDD6U6qab-12" value="&#xa;&lt;span style=&quot;color: rgb(0, 0, 0); font-family: Helvetica; font-size: 12px; font-style: normal; font-variant-ligatures: normal; font-variant-caps: normal; font-weight: 400; letter-spacing: normal; orphans: 2; text-align: center; text-indent: 0px; text-transform: none; widows: 2; word-spacing: 0px; -webkit-text-stroke-width: 0px; white-space: normal; background-color: rgb(251, 251, 251); text-decoration-thickness: initial; text-decoration-style: initial; text-decoration-color: initial; display: inline !important; float: none;&quot;&gt;Delta:&lt;/span&gt;&lt;br style=&quot;forced-color-adjust: none; color: rgb(0, 0, 0); font-family: Helvetica; font-size: 12px; font-style: normal; font-variant-ligatures: normal; font-variant-caps: normal; font-weight: 400; letter-spacing: normal; orphans: 2; text-align: center; text-indent: 0px; text-transform: none; widows: 2; word-spacing: 0px; -webkit-text-stroke-width: 0px; white-space: normal; background-color: rgb(251, 251, 251); text-decoration-thickness: initial; text-decoration-style: initial; text-decoration-color: initial;&quot;&gt;&lt;span style=&quot;color: rgb(0, 0, 0); font-family: Helvetica; font-size: 12px; font-style: normal; font-variant-ligatures: normal; font-variant-caps: normal; font-weight: 400; letter-spacing: normal; orphans: 2; text-align: center; text-indent: 0px; text-transform: none; widows: 2; word-spacing: 0px; -webkit-text-stroke-width: 0px; white-space: normal; background-color: rgb(251, 251, 251); text-decoration-thickness: initial; text-decoration-style: initial; text-decoration-color: initial; display: inline !important; float: none;&quot;&gt;Delta =b^2-4ac&amp;nbsp;&lt;/span&gt;&#xa;&#xa;" style="rounded=0;whiteSpace=wrap;html=1;" vertex="1" parent="1">
          <mxGeometry x="220" y="320" width="120" height="60" as="geometry" />
        </mxCell>
        <mxCell id="7Z89wIVW_9bbDD6U6qab-21" value="true" style="edgeStyle=orthogonalEdgeStyle;rounded=0;orthogonalLoop=1;jettySize=auto;html=1;" edge="1" parent="1" source="7Z89wIVW_9bbDD6U6qab-17" target="7Z89wIVW_9bbDD6U6qab-20">
          <mxGeometry relative="1" as="geometry" />
        </mxCell>
        <mxCell id="7Z89wIVW_9bbDD6U6qab-23" value="false" style="edgeStyle=orthogonalEdgeStyle;rounded=0;orthogonalLoop=1;jettySize=auto;html=1;entryX=0.5;entryY=0;entryDx=0;entryDy=0;" edge="1" parent="1" source="7Z89wIVW_9bbDD6U6qab-17" target="7Z89wIVW_9bbDD6U6qab-22">
          <mxGeometry relative="1" as="geometry" />
        </mxCell>
        <mxCell id="7Z89wIVW_9bbDD6U6qab-17" value="Delta = 0" style="rhombus;whiteSpace=wrap;html=1;" vertex="1" parent="1">
          <mxGeometry x="360" y="560" width="80" height="80" as="geometry" />
        </mxCell>
        <mxCell id="7Z89wIVW_9bbDD6U6qab-35" style="edgeStyle=orthogonalEdgeStyle;rounded=0;orthogonalLoop=1;jettySize=auto;html=1;entryX=0;entryY=0.5;entryDx=0;entryDy=0;" edge="1" parent="1" source="7Z89wIVW_9bbDD6U6qab-20" target="7Z89wIVW_9bbDD6U6qab-30">
          <mxGeometry relative="1" as="geometry">
            <Array as="points">
              <mxPoint x="210" y="750" />
              <mxPoint x="210" y="1170" />
            </Array>
          </mxGeometry>
        </mxCell>
        <mxCell id="7Z89wIVW_9bbDD6U6qab-20" value="nghiệm kép:&lt;br&gt;X = -b/2a" style="shape=parallelogram;perimeter=parallelogramPerimeter;whiteSpace=wrap;html=1;fixedSize=1;" vertex="1" parent="1">
          <mxGeometry x="220" y="720" width="120" height="60" as="geometry" />
        </mxCell>
        <mxCell id="7Z89wIVW_9bbDD6U6qab-25" value="true" style="edgeStyle=orthogonalEdgeStyle;rounded=0;orthogonalLoop=1;jettySize=auto;html=1;" edge="1" parent="1" source="7Z89wIVW_9bbDD6U6qab-22" target="7Z89wIVW_9bbDD6U6qab-24">
          <mxGeometry relative="1" as="geometry">
            <Array as="points">
              <mxPoint x="400" y="760" />
            </Array>
          </mxGeometry>
        </mxCell>
        <mxCell id="7Z89wIVW_9bbDD6U6qab-31" value="false" style="edgeStyle=orthogonalEdgeStyle;rounded=0;orthogonalLoop=1;jettySize=auto;html=1;" edge="1" parent="1" source="7Z89wIVW_9bbDD6U6qab-22" target="7Z89wIVW_9bbDD6U6qab-30">
          <mxGeometry x="-0.7021" relative="1" as="geometry">
            <Array as="points">
              <mxPoint x="580" y="760" />
              <mxPoint x="580" y="1170" />
            </Array>
            <mxPoint as="offset" />
          </mxGeometry>
        </mxCell>
        <mxCell id="7Z89wIVW_9bbDD6U6qab-22" value="Delta &amp;gt; 0" style="rhombus;whiteSpace=wrap;html=1;" vertex="1" parent="1">
          <mxGeometry x="460" y="720" width="80" height="80" as="geometry" />
        </mxCell>
        <mxCell id="7Z89wIVW_9bbDD6U6qab-28" style="edgeStyle=orthogonalEdgeStyle;rounded=0;orthogonalLoop=1;jettySize=auto;html=1;entryX=0.5;entryY=0;entryDx=0;entryDy=0;" edge="1" parent="1" source="7Z89wIVW_9bbDD6U6qab-24" target="7Z89wIVW_9bbDD6U6qab-26">
          <mxGeometry relative="1" as="geometry" />
        </mxCell>
        <mxCell id="7Z89wIVW_9bbDD6U6qab-24" value="phương trình có 2 nghiệm phân biệt" style="shape=parallelogram;perimeter=parallelogramPerimeter;whiteSpace=wrap;html=1;fixedSize=1;" vertex="1" parent="1">
          <mxGeometry x="340" y="870" width="120" height="60" as="geometry" />
        </mxCell>
        <mxCell id="7Z89wIVW_9bbDD6U6qab-32" style="edgeStyle=orthogonalEdgeStyle;rounded=0;orthogonalLoop=1;jettySize=auto;html=1;entryX=0;entryY=0.5;entryDx=0;entryDy=0;" edge="1" parent="1" source="7Z89wIVW_9bbDD6U6qab-26" target="7Z89wIVW_9bbDD6U6qab-30">
          <mxGeometry relative="1" as="geometry">
            <Array as="points">
              <mxPoint x="300" y="1170" />
            </Array>
          </mxGeometry>
        </mxCell>
        <mxCell id="7Z89wIVW_9bbDD6U6qab-26" value="X1 = (-b + căngDelta / 2a )" style="shape=parallelogram;perimeter=parallelogramPerimeter;whiteSpace=wrap;html=1;fixedSize=1;" vertex="1" parent="1">
          <mxGeometry x="230" y="970" width="120" height="60" as="geometry" />
        </mxCell>
        <mxCell id="7Z89wIVW_9bbDD6U6qab-33" style="edgeStyle=orthogonalEdgeStyle;rounded=0;orthogonalLoop=1;jettySize=auto;html=1;" edge="1" parent="1" source="7Z89wIVW_9bbDD6U6qab-27" target="7Z89wIVW_9bbDD6U6qab-30">
          <mxGeometry relative="1" as="geometry">
            <Array as="points">
              <mxPoint x="470" y="1130" />
              <mxPoint x="470" y="1130" />
            </Array>
          </mxGeometry>
        </mxCell>
        <mxCell id="7Z89wIVW_9bbDD6U6qab-27" value="X2 = (-b - căng Delta / 2a )" style="shape=parallelogram;perimeter=parallelogramPerimeter;whiteSpace=wrap;html=1;fixedSize=1;" vertex="1" parent="1">
          <mxGeometry x="410" y="970" width="120" height="60" as="geometry" />
        </mxCell>
        <mxCell id="7Z89wIVW_9bbDD6U6qab-29" style="edgeStyle=orthogonalEdgeStyle;rounded=0;orthogonalLoop=1;jettySize=auto;html=1;entryX=0.563;entryY=-0.013;entryDx=0;entryDy=0;entryPerimeter=0;" edge="1" parent="1" source="7Z89wIVW_9bbDD6U6qab-24" target="7Z89wIVW_9bbDD6U6qab-27">
          <mxGeometry relative="1" as="geometry" />
        </mxCell>
        <mxCell id="7Z89wIVW_9bbDD6U6qab-30" value="end" style="ellipse;whiteSpace=wrap;html=1;" vertex="1" parent="1">
          <mxGeometry x="440" y="1130" width="120" height="80" as="geometry" />
        </mxCell>
      </root>
    </mxGraphModel>
  </diagram>
</mxfile>
